<svg width="483" height="105" viewBox="0 0 483 105" fill="none" xmlns="http://www.w3.org/2000/svg">
<path d="M105.239 27.3V17.1835H145.52V27.3H128.642L131.267 24.6704V66.1956H119.602V24.6704L122.226 27.3H105.239ZM168.116 66.1956L166.621 56.5904V43.1139C166.621 41.3122 166.293 39.9121 165.637 38.9139C164.981 37.9157 163.584 37.4165 161.445 37.4165C160.181 37.4165 159.148 37.6112 158.347 38.0009C157.569 38.3661 156.986 38.8653 156.597 39.4983C156.232 40.107 156.05 40.7765 156.05 41.507H143.437C143.437 38.6827 144.106 36.3574 145.442 34.5313C146.779 32.6808 148.784 31.3053 151.457 30.4043C154.13 29.5034 157.46 29.053 161.445 29.053C164.92 29.053 167.909 29.5888 170.412 30.66C172.94 31.7312 174.884 33.3382 176.245 35.4809C177.606 37.6235 178.286 40.3138 178.286 43.5522V66.1956H168.116ZM156.816 67.3643C153.608 67.3643 150.898 66.8286 148.687 65.7574C146.499 64.6617 144.847 63.1888 143.729 61.3383C142.611 59.4877 142.052 57.4425 142.052 55.2026C142.052 53.0843 142.635 51.2583 143.802 49.7243C144.968 48.166 146.694 46.9608 148.978 46.1087C151.287 45.2566 154.118 44.8304 157.472 44.8304C159.513 44.8304 161.311 44.94 162.867 45.1591C164.446 45.3783 166.062 45.646 167.715 45.9626V52.5365C166.5 52.2688 165.236 52.0617 163.924 51.9156C162.636 51.7696 161.372 51.6965 160.133 51.6965C158.407 51.6965 157.034 51.9766 156.014 52.5365C155.017 53.0722 154.519 53.9609 154.519 55.2026C154.519 56.1035 154.968 56.8947 155.868 57.5765C156.767 58.2339 158.189 58.5626 160.133 58.5626C161.785 58.5626 163.085 58.2339 164.033 57.5765C164.981 56.9191 165.649 56.0912 166.038 55.093C166.427 54.0949 166.621 53.1088 166.621 52.1348H169.355C169.355 54.9104 168.918 57.4549 168.043 59.7678C167.168 62.0808 165.807 63.9313 163.96 65.3191C162.113 66.6825 159.732 67.3643 156.816 67.3643ZM203.737 67.3643C200.311 67.3643 197.285 66.914 194.66 66.013C192.036 65.0879 189.982 63.7122 188.5 61.8861C187.042 60.0356 186.325 57.7105 186.349 54.9104H196.884C196.933 56.1766 197.419 57.0531 198.342 57.54C199.29 58.0269 200.566 58.2704 202.17 58.2704C203.142 58.2704 203.944 58.1488 204.576 57.9052C205.207 57.6617 205.681 57.3453 205.997 56.9556C206.313 56.5418 206.471 56.1035 206.471 55.6409C206.471 55.0321 206.252 54.5452 205.815 54.18C205.378 53.8148 204.697 53.4496 203.774 53.0843L195.061 49.6878C192.485 48.6166 190.493 47.2653 189.083 45.6339C187.698 43.9783 187.005 42.0183 187.005 39.7539C187.005 36.5644 188.475 33.9835 191.416 32.0113C194.357 30.0391 198.379 29.053 203.482 29.053C208.269 29.053 211.951 30.1731 214.527 32.413C217.103 34.653 218.403 37.5017 218.428 40.9591H207.747C207.747 40.1801 207.419 39.5104 206.763 38.9504C206.107 38.3661 205.013 38.0739 203.482 38.0739C202.218 38.0739 201.222 38.2809 200.493 38.6948C199.764 39.1086 199.399 39.6564 199.399 40.3383C199.399 41.2634 200.165 41.9938 201.696 42.5296L211.611 46.5104C214.065 47.4844 215.997 48.7017 217.407 50.1626C218.817 51.6235 219.521 53.4496 219.521 55.6409C219.521 57.6375 218.829 59.5366 217.443 61.3383C216.083 63.1157 214.211 64.5643 211.83 65.6843C209.448 66.8044 206.751 67.3643 203.737 67.3643ZM241.707 67.3643C239.422 67.3643 237.283 66.9505 235.292 66.1226C233.323 65.2947 231.731 64.0043 230.516 62.2513C229.325 60.4738 228.73 58.1974 228.73 55.4217V21.1278H240.468V54.9835C240.468 57.1748 241.548 58.2704 243.71 58.2704C244.391 58.2704 245.109 58.1974 245.863 58.0513C246.64 57.8808 247.54 57.613 248.56 57.2478L250.274 65.3922C248.791 65.9279 247.369 66.3904 246.009 66.78C244.671 67.1696 243.238 67.3643 241.707 67.3643ZM224.464 37.7817V30.2217H248.633V37.7817H224.464ZM253.632 30.2217H266.974L274.337 55.9696H272.549L279.878 30.2217H291.689L277.691 72.0026C275.989 76.9209 274.009 80.3051 271.749 82.1556C269.512 84.0062 266.901 84.9313 263.912 84.9313C262.089 84.9313 260.253 84.7608 258.407 84.42C256.585 84.1034 254.762 83.5679 252.939 82.813V72.7696C254.3 73.4025 255.623 73.8773 256.913 74.1939C258.225 74.5347 259.501 74.7052 260.74 74.7052C261.565 74.7052 262.344 74.547 263.073 74.2304C263.802 73.9383 264.47 73.4149 265.078 72.66C265.684 71.9051 266.195 70.8704 266.609 69.5556L267.776 66.1956L253.632 30.2217ZM317.714 17.1835H329.889L349.537 46.8391H348.735V17.1835H360.4V66.1956H349.136L327.447 33.6183H329.379V66.1956H317.714V17.1835ZM387.115 67.3643C384.103 67.3643 381.272 66.5853 378.622 65.027C375.974 63.4686 373.824 61.2408 372.17 58.3435C370.543 55.4462 369.727 52.0131 369.727 48.0443C369.727 44.0756 370.543 40.679 372.17 37.8548C373.799 35.0061 375.938 32.8269 378.585 31.3174C381.235 29.8079 384.078 29.053 387.115 29.053C390.13 29.053 392.754 29.6618 394.989 30.8791C397.227 32.0722 399.024 33.6913 400.384 35.7365C401.769 37.7817 402.669 40.0947 403.082 42.6756C403.519 45.2322 403.435 47.8738 402.827 50.6009H378.95V44.6843H394.297L392.62 45.78C392.693 44.9279 392.656 44.0635 392.51 43.187C392.39 42.3104 392.134 41.507 391.745 40.7765C391.358 40.0217 390.797 39.4252 390.068 38.9869C389.364 38.5243 388.453 38.293 387.334 38.293C386.095 38.293 385.015 38.5973 384.09 39.2061C383.192 39.7904 382.486 40.6549 381.976 41.7991C381.49 42.9192 381.246 44.2947 381.246 45.9261V50.5278C381.246 52.0617 381.465 53.3886 381.903 54.5087C382.34 55.6288 382.985 56.5053 383.835 57.1383C384.71 57.747 385.803 58.0513 387.115 58.0513C388.186 58.0513 389.12 57.8322 389.922 57.3939C390.724 56.9556 391.285 56.2617 391.599 55.3122H403.191C402.827 57.5521 401.929 59.5852 400.494 61.4113C399.086 63.2374 397.238 64.6862 394.953 65.7574C392.693 66.8286 390.082 67.3643 387.115 67.3643ZM426.585 67.3643C423.158 67.3643 420.133 66.914 417.508 66.013C414.883 65.0879 412.828 63.7122 411.345 61.8861C409.889 60.0356 409.172 57.7105 409.197 54.9104H419.732C419.779 56.1766 420.265 57.0531 421.19 57.54C422.137 58.0269 423.413 58.2704 425.017 58.2704C425.988 58.2704 426.79 58.1488 427.423 57.9052C428.054 57.6617 428.528 57.3453 428.845 56.9556C429.159 56.5418 429.319 56.1035 429.319 55.6409C429.319 55.0321 429.1 54.5452 428.662 54.18C428.225 53.8148 427.544 53.4496 426.619 53.0843L417.909 49.6878C415.332 48.6166 413.339 47.2653 411.931 45.6339C410.545 43.9783 409.853 42.0183 409.853 39.7539C409.853 36.5644 411.322 33.9835 414.264 32.0113C417.203 30.0391 421.226 29.053 426.33 29.053C431.116 29.053 434.798 30.1731 437.375 32.413C439.949 34.653 441.25 37.5017 441.275 40.9591H430.595C430.595 40.1801 430.266 39.5104 429.61 38.9504C428.954 38.3661 427.861 38.0739 426.33 38.0739C425.065 38.0739 424.069 38.2809 423.34 38.6948C422.611 39.1086 422.247 39.6564 422.247 40.3383C422.247 41.2634 423.012 41.9938 424.543 42.5296L434.458 46.5104C436.912 47.4844 438.844 48.7017 440.255 50.1626C441.663 51.6235 442.369 53.4496 442.369 55.6409C442.369 57.6375 441.676 59.5366 440.291 61.3383C438.929 63.1157 437.058 64.5643 434.677 65.6843C432.294 66.8044 429.597 67.3643 426.585 67.3643ZM464.553 67.3643C462.267 67.3643 460.13 66.9505 458.137 66.1226C456.168 65.2947 454.576 64.0043 453.362 62.2513C452.17 60.4738 451.575 58.1974 451.575 55.4217V21.1278H463.313V54.9835C463.313 57.1748 464.395 58.2704 466.558 58.2704C467.239 58.2704 467.954 58.1974 468.708 58.0513C469.485 57.8808 470.385 57.613 471.406 57.2478L473.119 65.3922C471.636 65.9279 470.214 66.3904 468.854 66.78C467.517 67.1696 466.084 67.3643 464.553 67.3643ZM447.31 37.7817V30.2217H471.479V37.7817H447.31Z" fill="black"/>
<path d="M89.2972 35.2609C89.2972 44.9471 84.8565 54.2364 76.9522 61.0856C69.0478 67.9348 58.3271 71.7826 47.1486 71.7826C35.9701 71.7826 25.2494 67.9348 17.345 61.0856C9.44064 54.2364 5 44.9471 5 35.2609H47.1486H89.2972Z" fill="black"/>
<path d="M31.1379 45.5153L31.0191 46.5082L31.1379 45.5153C26.0645 44.9084 21.473 44.0206 17.6225 42.9085C13.7604 41.7929 10.7722 40.4884 8.78037 39.0994L8.78037 39.0994C7.33884 38.0942 6.538 37.1327 6.19811 36.2609H47.1486H88.0991C87.7592 37.1328 86.9584 38.0942 85.5169 39.0994C83.525 40.4884 80.5369 41.7929 76.6747 42.9085C72.8242 44.0206 68.2328 44.9084 63.1593 45.5153C58.0878 46.122 52.6469 46.4349 47.1486 46.4349C41.6502 46.4349 36.2093 46.122 31.1379 45.5153Z" fill="#C2A849" stroke="black" stroke-width="2"/>
<mask id="mask0_37_174" style="mask-type:luminance" maskUnits="userSpaceOnUse" x="15" y="24" width="22" height="24">
<path d="M15.3123 45.2193C15.6714 42.3281 16.3005 39.498 17.1636 36.8903C18.0266 34.2826 19.1068 31.9486 20.3425 30.0212C21.5781 28.0939 22.9451 26.6112 24.3652 25.6577C25.7853 24.7041 27.2308 24.2985 28.6191 24.464C30.0075 24.6295 31.3116 25.3628 32.4569 26.622C33.6023 27.8812 34.5664 29.6417 35.2941 31.803C36.022 33.9643 36.4993 36.4841 36.6989 39.2185C36.8985 41.9528 36.8162 44.8481 36.4572 47.7391L25.8848 46.4792L15.3123 45.2193Z" fill="white"/>
</mask>
<g mask="url(#mask0_37_174)">
<path d="M15.3123 45.2193C15.6714 42.3281 16.3005 39.498 17.1636 36.8903C18.0266 34.2826 19.1068 31.9486 20.3425 30.0212C21.5781 28.0939 22.9451 26.6112 24.3652 25.6577C25.7853 24.7041 27.2308 24.2985 28.6191 24.464C30.0075 24.6295 31.3116 25.3628 32.4569 26.622C33.6023 27.8812 34.5664 29.6417 35.2941 31.803C36.022 33.9643 36.4993 36.4841 36.6989 39.2185C36.8985 41.9528 36.8162 44.8481 36.4572 47.7391L25.8848 46.4792L15.3123 45.2193Z" fill="white" stroke="black" stroke-width="5"/>
</g>
<mask id="mask1_37_174" style="mask-type:luminance" maskUnits="userSpaceOnUse" x="53" y="24" width="23" height="24">
<path d="M53.8051 47.7391C53.5461 44.7813 53.5638 41.8282 53.8577 39.0489C54.1514 36.2695 54.7153 33.718 55.5175 31.5404C56.3194 29.3627 57.3435 27.6013 58.5317 26.357C59.7198 25.1125 61.0485 24.4094 62.4417 24.2877C63.8351 24.1659 65.2657 24.6279 66.6522 25.6474C68.0386 26.6669 69.3536 28.2239 70.5219 30.2294C71.6905 32.2349 72.6895 34.6498 73.4621 37.336C74.2346 40.0223 74.7657 42.9272 75.025 45.8852L64.4149 46.8122L53.8051 47.7391Z" fill="white"/>
</mask>
<g mask="url(#mask1_37_174)">
<path d="M53.8051 47.7391C53.5461 44.7813 53.5638 41.8282 53.8577 39.0489C54.1514 36.2695 54.7153 33.718 55.5175 31.5404C56.3194 29.3627 57.3435 27.6013 58.5317 26.357C59.7198 25.1125 61.0485 24.4094 62.4417 24.2877C63.8351 24.1659 65.2657 24.6279 66.6522 25.6474C68.0386 26.6669 69.3536 28.2239 70.5219 30.2294C71.6905 32.2349 72.6895 34.6498 73.4621 37.336C74.2346 40.0223 74.7657 42.9272 75.025 45.8852L64.4149 46.8122L53.8051 47.7391Z" fill="white" stroke="black" stroke-width="5"/>
</g>
<mask id="mask2_37_174" style="mask-type:luminance" maskUnits="userSpaceOnUse" x="33" y="17" width="24" height="31">
<path d="M33.099 47.7391C33.099 43.7023 33.4018 39.7053 33.9903 35.9758C34.5785 32.2464 35.4411 28.8576 36.5283 26.0033C37.6153 23.149 38.9059 20.8847 40.3265 19.3399C41.747 17.7951 43.2693 17 44.807 17C46.3444 17 47.867 17.7951 49.2875 19.3399C50.7078 20.8847 51.9984 23.149 53.0856 26.0033C54.1728 28.8576 55.0354 32.2464 55.6237 35.9758C56.2121 39.7053 56.5149 43.7023 56.5149 47.7391H44.807H33.099Z" fill="white"/>
</mask>
<g mask="url(#mask2_37_174)">
<path d="M33.099 47.7391C33.099 43.7023 33.4018 39.7053 33.9903 35.9758C34.5785 32.2464 35.4411 28.8576 36.5283 26.0033C37.6153 23.149 38.9059 20.8847 40.3265 19.3399C41.747 17.7951 43.2693 17 44.807 17C46.3444 17 47.867 17.7951 49.2875 19.3399C50.7078 20.8847 51.9984 23.149 53.0856 26.0033C54.1728 28.8576 55.0354 32.2464 55.6237 35.9758C56.2121 39.7053 56.5149 43.7023 56.5149 47.7391H44.807H33.099Z" fill="white" stroke="black" stroke-width="5"/>
</g>
</svg>
